<svg width="19" height="21" viewBox="0 0 19 21" fill="none" xmlns="http://www.w3.org/2000/svg">
<path d="M18.2692 15.2069H17.5385L16.1982 7.6831C15.7693 5.27534 13.8751 3.44472 11.5228 3.00734C11.6317 2.74955 11.6923 2.46859 11.6923 2.17241C11.6923 0.972517 10.7109 0 9.5 0C8.28911 0 7.30769 0.972517 7.30769 2.17241C7.30769 2.46859 7.36835 2.74955 7.4765 3.00734C5.12488 3.44472 3.23 5.27534 2.80177 7.6831L1.46154 15.2069H0.730769L0 18.1034H19L18.2692 15.2069ZM9.5 1.44828C9.90265 1.44828 10.2308 1.77341 10.2308 2.17241C10.2308 2.57141 9.90265 2.89655 9.5 2.89655C9.09735 2.89655 8.76923 2.57141 8.76923 2.17241C8.76923 1.77341 9.09735 1.44828 9.5 1.44828ZM8.03846 18.8276H10.9615V19.5517C10.9615 20.3519 10.3075 21 9.5 21C8.6925 21 8.03846 20.3519 8.03846 19.5517V18.8276Z" fill="black"/>
</svg>
