<svg width="20" height="20" viewBox="0 0 20 20" fill="none" xmlns="http://www.w3.org/2000/svg">
<path d="M7.32737 0C3.28847 0 5.0359e-06 3.28803 0 7.32798C5.0359e-06 11.3679 3.28847 14.6573 7.32737 14.6573C9.10859 14.6573 10.7422 14.0167 12.0137 12.9551L18.8479 19.7924C19.4774 20.422 20.4219 19.4772 19.7925 18.8476L12.9569 12.0103C14.0151 10.7394 14.6534 9.10672 14.6534 7.32798C14.6534 3.28803 11.3663 0 7.32737 0ZM7.32737 1.3326C10.6463 1.33262 13.3212 4.00821 13.3212 7.32798C13.3212 10.6478 10.6463 13.3247 7.32737 13.3247C4.00847 13.3247 1.33225 10.6478 1.33225 7.32798C1.33225 4.00821 4.00847 1.33262 7.32737 1.3326Z" fill="#FFFEFE"/>
</svg>
