<svg width="20" height="20" viewBox="0 0 20 20" fill="none" xmlns="http://www.w3.org/2000/svg">
<path fill-rule="evenodd" clip-rule="evenodd" d="M17.8923 10C17.8923 9.56471 17.8516 9.12 17.7688 8.67529L20 6.77765L17.8827 3.22706L15.0677 4.14824C14.3568 3.56942 13.5463 3.11294 12.6915 2.81058L12.1113 0H7.88873L7.30848 2.80942C6.44408 3.11294 5.64802 3.56235 4.93107 4.14706L2.11726 3.22706L0 6.77765L2.23115 8.67529C2.14842 9.12 2.10765 9.56471 2.10765 10C2.10765 10.4353 2.14842 10.88 2.23114 11.3247L0 13.2224L2.11725 16.7729L4.93226 15.8518C5.64321 16.4306 6.45366 16.8871 7.30848 17.1894L7.88873 20H12.1112L12.6915 17.1906C13.5547 16.8871 14.352 16.4376 15.0689 15.8529L17.8827 16.7741L20 13.2235L17.7688 11.3259C17.8516 10.88 17.8923 10.4353 17.8923 10M9.99998 14.1176C7.68612 14.1176 5.80385 12.2706 5.80385 10C5.80385 7.72942 7.68612 5.88235 9.99998 5.88235C12.3139 5.88235 14.1961 7.72942 14.1961 10C14.1961 12.2706 12.3139 14.1176 9.99998 14.1176Z" fill="black"/>
</svg>
