<svg width="241" height="118" viewBox="0 0 241 118" fill="none" xmlns="http://www.w3.org/2000/svg">
<path d="M62.529 59.0301C62.1327 49.5202 78.8593 43.7183 85.9436 42.6598C92.5274 41.676 101.627 45.4712 99.6351 53.6726C98.7954 57.1302 91.8572 60.7659 91.0035 55.3592C89.363 44.9692 107.315 46.2174 113.029 46.7276C117.78 47.1518 114.868 52.8458 116.303 53.0773C118.022 53.3544 119.67 52.192 121.363 51.7875C127.764 50.258 133.007 49.2666 139.718 48.6126C151.332 47.4807 166.617 45.8424 177.915 50.1008C181.772 51.5545 176.202 53.2092 174.939 53.2757C172.624 53.3975 179.386 51.8826 181.685 51.5891C184.903 51.1783 175.491 53.523 172.359 54.3671C171.319 54.6474 168.21 55.4487 169.284 55.3592C175.621 54.8311 181.604 53.9535 188.035 54.0198C196.264 54.1046 212.164 53.4114 218.643 60.0223C223.194 64.6662 209.2 70.4169 207.084 71.5808C200.454 75.2275 193.846 80.0523 186.795 82.8416C173.414 88.1352 154.625 85.7076 140.908 85.7684C105.49 85.9255 70.0687 85.818 34.6497 85.818C33.309 85.818 10.3754 85.9753 4.98464 85.57C-0.078275 85.1893 2.16981 84.4847 5.33189 83.0896C70.6976 54.2518 142.143 40.6932 211.599 26.0414C220.515 24.1604 229.275 20.4444 238.386 20.5846C242.069 20.6412 232.376 24.856 229.209 26.7359C199.21 44.5436 169.81 63.3756 140.065 81.6014C121.593 92.9198 102.099 103.382 84.1577 115.582C80.137 118.316 86.7252 108.52 86.8861 108.191C96.0204 89.5131 109.044 75.5625 125.232 62.5026C147.91 44.2082 173.087 28.8114 198.949 15.475C208.521 10.5387 218.24 6.28836 228.167 2.18032C229.594 1.59005 225.569 2.62508 225.042 2.7756" stroke="white" stroke-width="3" stroke-linecap="round"/>
</svg>
