<svg width="365" height="247" viewBox="0 0 365 247" fill="none" xmlns="http://www.w3.org/2000/svg">
<mask id="mask0_104_37" style="mask-type:alpha" maskUnits="userSpaceOnUse" x="0" y="0" width="365" height="247">
<path d="M360.59 0H4.14471C1.85565 0 0 1.85179 0 4.13608V241.96C0 244.245 1.85565 246.096 4.14471 246.096H360.59C362.879 246.096 364.734 244.245 364.734 241.96V4.13608C364.734 1.85179 362.879 0 360.59 0Z" fill="white"/>
</mask>
<g mask="url(#mask0_104_37)">
<path d="M364.734 49.5493H0V107.357H364.734V49.5493Z" fill="#F9F7F7"/>
<path d="M107.763 74.3247H58.0261C55.737 74.3247 53.8813 76.1765 53.8813 78.4608V152.772C53.8813 155.056 55.737 156.908 58.0261 156.908H107.763C110.052 156.908 111.907 155.056 111.907 152.772V78.4608C111.907 76.1765 110.052 74.3247 107.763 74.3247Z" fill="#EDEDED"/>
<path d="M89.5285 132.958H75.431C74.5169 132.958 73.7759 133.697 73.7759 134.61V134.61C73.7759 135.522 74.5169 136.261 75.431 136.261H89.5285C90.4426 136.261 91.1836 135.522 91.1836 134.61V134.61C91.1836 133.697 90.4426 132.958 89.5285 132.958Z" fill="white"/>
<path opacity="0.5" d="M94.502 139.565H70.457C69.543 139.565 68.8019 140.304 68.8019 141.217C68.8019 142.129 69.543 142.868 70.457 142.868H94.502C95.416 142.868 96.1571 142.129 96.1571 141.217C96.1571 140.304 95.416 139.565 94.502 139.565Z" fill="white"/>
<path d="M67.8924 119.584C67.6907 119.584 67.4884 119.544 67.286 119.423C66.7199 119.101 66.5176 118.375 66.8412 117.771C70.1167 112.051 76.2631 108.466 82.8946 108.466C89.5261 108.466 95.6725 112.051 98.9474 117.771C99.271 118.335 99.0687 119.101 98.5026 119.423C97.9365 119.745 97.1686 119.544 96.845 118.98C93.9741 113.984 88.6364 110.882 82.8946 110.882C77.1522 110.882 71.8151 113.984 68.9436 118.98C68.7419 119.342 68.3373 119.584 67.8924 119.584Z" fill="white"/>
<path fill-rule="evenodd" clip-rule="evenodd" d="M73.5939 95.9777C73.5939 101.094 77.7591 105.243 82.8946 105.243C88.03 105.243 92.1946 101.094 92.1946 95.9777C92.1946 90.8618 88.03 86.7124 82.8946 86.7124C77.7591 86.7124 73.5939 90.8612 73.5939 95.9777ZM76.0205 95.9777C76.0205 92.1908 79.0932 89.129 82.8946 89.129C86.6954 89.129 89.7686 92.1908 89.7686 95.9777C89.7686 99.7646 86.6954 102.826 82.8946 102.826C79.0937 102.826 76.0205 99.764 76.0205 95.9777Z" fill="white"/>
<path d="M306.709 91.667H256.972C254.683 91.667 252.827 93.5188 252.827 95.8031V198.192C252.827 200.476 254.683 202.328 256.972 202.328H306.709C308.998 202.328 310.853 200.476 310.853 198.192V95.8031C310.853 93.5188 308.998 91.667 306.709 91.667Z" fill="#EDEDED"/>
<path d="M240.393 91.667H124.341C122.052 91.667 120.196 93.5188 120.196 95.8031V163.507C120.196 165.791 122.052 167.643 124.341 167.643H240.393C242.682 167.643 244.538 165.791 244.538 163.507V95.8031C244.538 93.5188 242.682 91.667 240.393 91.667Z" fill="#EDEDED"/>
<path d="M189.001 101.577H131.799C130.885 101.577 130.144 102.317 130.144 103.229C130.144 104.141 130.885 104.88 131.799 104.88H189.001C189.915 104.88 190.656 104.141 190.656 103.229C190.656 102.317 189.915 101.577 189.001 101.577Z" fill="white"/>
<path d="M206.409 146.997H131.799C130.885 146.997 130.144 147.737 130.144 148.649V148.649C130.144 149.561 130.885 150.3 131.799 150.3H206.409C207.323 150.3 208.064 149.561 208.064 148.649C208.064 147.737 207.323 146.997 206.409 146.997Z" fill="white"/>
<path d="M164.962 154.43H131.799C130.885 154.43 130.144 155.17 130.144 156.082C130.144 156.994 130.885 157.733 131.799 157.733H164.962C165.876 157.733 166.617 156.994 166.617 156.082C166.617 155.17 165.876 154.43 164.962 154.43Z" fill="white"/>
<path d="M186.515 154.43H172.417C171.503 154.43 170.762 155.17 170.762 156.082C170.762 156.994 171.503 157.733 172.417 157.733H186.515C187.429 157.733 188.17 156.994 188.17 156.082C188.17 155.17 187.429 154.43 186.515 154.43Z" fill="white"/>
<path opacity="0.28697" d="M247.025 109.009H131.801C130.886 109.009 130.144 109.75 130.144 110.663V141.213C130.144 142.127 130.886 142.868 131.801 142.868H247.025C247.94 142.868 248.683 142.127 248.683 141.213V110.663C248.683 109.75 247.94 109.009 247.025 109.009Z" fill="white"/>
<path d="M240.393 175.901H124.341C122.052 175.901 120.196 177.753 120.196 180.037V243.612C120.196 245.896 122.052 247.748 124.341 247.748H240.393C242.682 247.748 244.538 245.896 244.538 243.612V180.037C244.538 177.753 242.682 175.901 240.393 175.901Z" fill="#EDEDED"/>
<path opacity="0.28697" d="M247.025 208.108H131.801C130.886 208.108 130.144 208.849 130.144 209.763V246.094C130.144 247.007 130.886 247.748 131.801 247.748H247.025C247.94 247.748 248.683 247.007 248.683 246.094V209.763C248.683 208.849 247.94 208.108 247.025 208.108Z" fill="white"/>
<path d="M159.16 185.812H131.799C130.885 185.812 130.144 186.551 130.144 187.463C130.144 188.375 130.885 189.115 131.799 189.115H159.16C160.074 189.115 160.815 188.375 160.815 187.463C160.815 186.551 160.074 185.812 159.16 185.812Z" fill="white"/>
<path opacity="0.5" d="M247.027 193.244H219.667C218.753 193.244 218.012 193.983 218.012 194.895C218.012 195.807 218.753 196.547 219.667 196.547H247.027C247.942 196.547 248.683 195.807 248.683 194.895C248.683 193.983 247.942 193.244 247.027 193.244Z" fill="white"/>
<path opacity="0.5" d="M212.212 193.244H131.799C130.885 193.244 130.144 193.983 130.144 194.895C130.144 195.807 130.885 196.547 131.799 196.547H212.212C213.126 196.547 213.867 195.807 213.867 194.895C213.867 193.983 213.126 193.244 212.212 193.244Z" fill="white"/>
<path opacity="0.3" d="M173.252 200.676H131.799C130.885 200.676 130.144 201.416 130.144 202.328C130.144 203.24 130.885 203.98 131.799 203.98H173.252C174.166 203.98 174.907 203.24 174.907 202.328C174.907 201.416 174.166 200.676 173.252 200.676Z" fill="white"/>
<path fill-rule="evenodd" clip-rule="evenodd" d="M12.9122 33.1697L11.6079 37.8213L12.8262 37.8202C12.3168 39.1229 11.9188 40.1444 11.6322 40.8848C9.38477 40.859 8.75469 39.2092 9.30594 37.2575L9.36106 37.0584L10.9646 31.3813H13.4221L12.9249 33.1378C12.919 33.1477 12.9147 33.1585 12.9122 33.1697ZM43.1332 33.6951L40.9045 37.2635L40.6834 33.6951H37.4564C37.7519 32.6482 37.9901 31.8082 37.9901 31.8082L38.1163 31.3885H35.65L35.5337 31.8077L34.9995 33.6951H32.3762C30.2175 33.6951 29.0025 34.3271 28.4998 35.5219C28.2093 34.4294 27.2485 33.6956 25.7711 33.6956C24.5624 33.6911 23.3965 34.1418 22.5061 34.9575C22.0706 34.1874 21.2096 33.6962 20.0062 33.6962C19.3696 33.6944 18.739 33.8187 18.151 34.0619C17.5629 34.305 17.029 34.6622 16.5802 35.1127C16.2257 34.3508 15.4871 33.8216 14.4358 33.7132L13.3444 36.5143H14.6045L11.6377 40.8865H11.6835C13.0142 40.8865 14.3658 40.2726 15.3465 39.3484C15.7131 40.2429 16.6061 40.8309 17.9892 40.8309C19.1817 40.8168 20.3277 40.3673 21.2107 39.5674C21.6263 40.3391 22.4813 40.8309 23.7497 40.8309H29.9093C31.8172 40.8309 32.8971 40.4442 33.4577 39.6048C33.4577 40.4057 33.9037 40.8304 35.0326 40.8304C35.9444 40.8304 37.1648 40.6252 38.8412 40.2011L36.4003 43.769H38.8577L45.5917 33.6951H43.1332ZM20.2267 37.2635C19.9974 38.076 19.2576 38.7318 18.5796 38.7318C17.9015 38.7318 17.5366 38.076 17.7665 37.263C17.9958 36.4511 18.7356 35.7942 19.4136 35.7942C20.0922 35.7942 20.4566 36.4483 20.2267 37.2635ZM25.1763 35.7942C24.4977 35.7942 23.7585 36.4494 23.5287 37.263C23.3026 38.0645 23.6549 38.7125 24.3153 38.7318H24.3704C25.0407 38.7125 25.7606 38.0766 25.99 37.263C26.2193 36.4494 25.8544 35.7942 25.1763 35.7942ZM31.4462 38.4765C31.3365 38.7395 30.5681 38.7356 30.2224 38.734H30.11L27.7247 38.7318C28.0481 38.2875 28.2916 37.7905 28.4441 37.263C28.4588 37.2095 28.4722 37.1563 28.4844 37.1035C28.7423 37.4803 29.287 37.8197 30.3465 38.0353C30.5725 38.0804 30.7571 38.1123 30.9065 38.1377C31.4203 38.2262 31.5151 38.2422 31.4462 38.4765ZM31.4887 36.3476C32.7642 36.5072 33.6672 36.8361 33.8767 37.6745L34.4114 35.7981H31.6143C31.0421 35.7981 30.7753 35.8366 30.723 36.0203C30.6601 36.247 30.9324 36.28 31.4225 36.3399L31.4887 36.3476ZM36.3308 37.6822C36.3308 37.6712 36.441 37.2834 36.6031 36.7124L36.8628 35.7948H38.4211L38.6752 38.4683C36.1081 39.0305 36.0453 38.8792 36.3308 37.6822Z" fill="#D3D3D3"/>
<path d="M350.652 31.3813H325.765C322.565 31.3813 319.972 33.9695 319.972 37.1621C319.972 40.3548 322.565 42.9429 325.765 42.9429H350.652C353.852 42.9429 356.445 40.3548 356.445 37.1621C356.445 33.9695 353.852 31.3813 350.652 31.3813Z" fill="#EDEDED"/>
<path d="M364.734 0H0V24.7748H364.734V0Z" fill="#F1F1F1"/>
<path fill-rule="evenodd" clip-rule="evenodd" d="M12.4343 16.5164C14.723 16.5164 16.5791 14.6681 16.5791 12.3874C16.5791 10.1067 14.723 8.25781 12.4337 8.25781C10.1444 8.25781 8.28943 10.1067 8.28943 12.3874C8.28943 14.6681 10.1449 16.5164 12.4343 16.5164Z" fill="#E2E2E2"/>
<path fill-rule="evenodd" clip-rule="evenodd" d="M26.5257 16.5164C28.8151 16.5164 30.6711 14.6681 30.6711 12.3874C30.6711 10.1067 28.8151 8.25781 26.5257 8.25781C24.2364 8.25781 22.3815 10.1067 22.3815 12.3874C22.3815 14.6681 24.237 16.5164 26.5263 16.5164" fill="#E2E2E2"/>
<path fill-rule="evenodd" clip-rule="evenodd" d="M39.7893 16.5164C42.0781 16.5164 43.9341 14.6681 43.9341 12.3874C43.9341 10.1067 42.0781 8.25781 39.7893 8.25781C37.5005 8.25781 35.6445 10.1067 35.6445 12.3874C35.6445 14.6681 37.5 16.5164 39.7893 16.5164Z" fill="#E2E2E2"/>
</g>
</svg>
